<svg id="visual" viewBox="0 0 900 600" width="900" height="600" xmlns="http://www.w3.org/2000/svg" xmlns:xlink="http://www.w3.org/1999/xlink" version="1.1"><g transform="translate(424.97494497276176 284.4801827534273)"><path d="M181.3 -237.8C237.5 -208.6 287.6 -159.2 302.9 -101C318.3 -42.9 298.9 24 278.7 91.9C258.5 159.8 237.4 228.8 190.8 265.5C144.2 302.1 72.1 306.6 -0.7 307.5C-73.5 308.5 -146.9 305.9 -193.1 269.1C-239.2 232.2 -258 161.1 -258.4 98.4C-258.8 35.8 -240.9 -18.3 -226.4 -76.9C-211.9 -135.4 -200.9 -198.4 -163.7 -233.8C-126.6 -269.2 -63.3 -277.1 -0.4 -276.6C62.5 -276 125 -267.1 181.3 -237.8" fill="#54A194"></path></g></svg>